<svg width="1243" height="655" viewBox="0 0 1243 655" fill="none" xmlns="http://www.w3.org/2000/svg">
<path fill-rule="evenodd" clip-rule="evenodd" d="M35.4159 413.721C39.9233 413.721 67.9059 441.289 67.9059 445.355C67.9059 449.422 39.9233 476.989 35.4159 476.989C30.9085 476.989 2.71188 449.422 2.71188 445.355C2.71188 441.289 30.9085 413.721 35.4159 413.721Z" fill="#EEF3FB"/>
<path fill-rule="evenodd" clip-rule="evenodd" d="M1216.1 145.105C1223.49 145.105 1269.4 190.329 1269.4 197C1269.4 203.671 1223.49 248.895 1216.1 248.895C1208.7 248.895 1162.45 203.671 1162.45 197C1162.45 190.329 1208.7 145.105 1216.1 145.105Z" fill="#EEF3FB"/>
<path fill-rule="evenodd" clip-rule="evenodd" d="M1166.08 653.744C1166.98 653.744 1172.58 659.258 1172.58 660.071C1172.58 660.884 1166.98 666.398 1166.08 666.398C1165.18 666.398 1159.54 660.884 1159.54 660.071C1159.54 659.258 1165.18 653.744 1166.08 653.744Z" fill="#FFC729"/>
<path fill-rule="evenodd" clip-rule="evenodd" d="M109.083 593.744C109.985 593.744 115.581 599.258 115.581 600.071C115.581 600.884 109.985 606.398 109.083 606.398C108.182 606.398 102.543 600.884 102.543 600.071C102.543 599.258 108.182 593.744 109.083 593.744Z" fill="#FFC729"/>
<path fill-rule="evenodd" clip-rule="evenodd" d="M1106.08 574.744C1106.98 574.744 1112.58 580.258 1112.58 581.071C1112.58 581.884 1106.98 587.398 1106.08 587.398C1105.18 587.398 1099.54 581.884 1099.54 581.071C1099.54 580.258 1105.18 574.744 1106.08 574.744Z" fill="#EDF1F7"/>
<path fill-rule="evenodd" clip-rule="evenodd" d="M1081.71 495.861C1083.96 495.861 1097.95 509.644 1097.95 511.678C1097.95 513.711 1083.96 527.495 1081.71 527.495C1079.45 527.495 1065.36 513.711 1065.36 511.678C1065.36 509.644 1079.45 495.861 1081.71 495.861Z" fill="#FBEBFF"/>
<path fill-rule="evenodd" clip-rule="evenodd" d="M254.058 3.57868C258.393 3.57868 285.303 30.0892 285.303 34C285.303 37.9107 258.393 64.4213 254.058 64.4213C249.723 64.4213 222.608 37.9107 222.608 34C222.608 30.0892 249.723 3.57868 254.058 3.57868Z" fill="#FBEBFF"/>
</svg>
