<svg width="32" height="32" viewBox="0 0 32 32" fill="none" xmlns="http://www.w3.org/2000/svg">
<path fill-rule="evenodd" clip-rule="evenodd" d="M23.7524 1.33325C25.1411 1.33325 26.2667 2.45894 26.2667 3.84756V11.9576L26.266 12.0239C26.2312 13.6779 24.8971 15.0123 23.2433 15.0476L23.176 15.0483L23.2424 15.049C24.8963 15.0838 26.2307 16.4179 26.266 18.0718L26.2667 18.139V23.2121C26.2667 23.9338 25.9566 24.6207 25.4153 25.098L19.0993 30.6666L19.0994 19.3011C19.0994 17.9125 17.9737 16.7868 16.5851 16.7868H12.9006L12.9005 30.6666L6.58476 25.098C6.04341 24.6207 5.73328 23.9338 5.73328 23.2121V3.84756C5.73328 2.45894 6.85897 1.33325 8.24758 1.33325H23.7524ZM19.0994 4.8103H12.9006V12.5371H16.5851C17.9737 12.5371 19.0994 11.4114 19.0994 10.0228V4.8103Z" fill="url(#paint0_linear)"/>
<defs>
<linearGradient id="paint0_linear" x1="26.2667" y1="1.33325" x2="1.44599" y2="5.5741" gradientUnits="userSpaceOnUse">
<stop stop-color="#1C94F4"/>
<stop offset="1" stop-color="#1273EA"/>
</linearGradient>
</defs>
</svg>
